<svg xmlns="http://www.w3.org/2000/svg" xmlns:xlink="http://www.w3.org/1999/xlink" version="1.1" width="256" height="256" viewBox="0 0 256 256" xml:space="preserve">
<g style="stroke: none; stroke-width: 0; stroke-dasharray: none; stroke-linecap: butt; stroke-linejoin: miter; stroke-miterlimit: 10; fill: none; fill-rule: nonzero; opacity: 1;" transform="translate(1.4065934065934016 1.4065934065934016) scale(2.81 2.81)">
	<path d="M 34.515 74.921 c -0.159 0 -0.321 -0.038 -0.471 -0.118 l -11.27 -6.036 c -0.487 -0.261 -0.67 -0.867 -0.409 -1.354 c 0.261 -0.487 0.866 -0.67 1.354 -0.41 l 11.27 6.036 c 0.487 0.261 0.67 0.867 0.409 1.354 C 35.217 74.729 34.872 74.921 34.515 74.921 z" style="stroke: none; stroke-width: 1; stroke-dasharray: none; stroke-linecap: butt; stroke-linejoin: miter; stroke-miterlimit: 10; fill: rgb(198,198,198); fill-rule: nonzero; opacity: 1;" transform=" matrix(1 0 0 1 0 0) " stroke-linecap="round"/>
	<path d="M 12.763 52.948 c -0.552 0 -1 -0.447 -1 -1 V 38.052 c 0 -0.552 0.448 -1 1 -1 s 1 0.448 1 1 v 13.896 C 13.763 52.501 13.315 52.948 12.763 52.948 z" style="stroke: none; stroke-width: 1; stroke-dasharray: none; stroke-linecap: butt; stroke-linejoin: miter; stroke-miterlimit: 10; fill: rgb(198,198,198); fill-rule: nonzero; opacity: 1;" transform=" matrix(1 0 0 1 0 0) " stroke-linecap="round"/>
	<path d="M 23.248 23.116 c -0.357 0 -0.702 -0.191 -0.882 -0.528 c -0.261 -0.487 -0.078 -1.093 0.409 -1.354 l 11.27 -6.037 c 0.488 -0.261 1.093 -0.077 1.354 0.409 c 0.261 0.487 0.078 1.093 -0.409 1.354 l -11.27 6.037 C 23.568 23.078 23.407 23.116 23.248 23.116 z" style="stroke: none; stroke-width: 1; stroke-dasharray: none; stroke-linecap: butt; stroke-linejoin: miter; stroke-miterlimit: 10; fill: rgb(198,198,198); fill-rule: nonzero; opacity: 1;" transform=" matrix(1 0 0 1 0 0) " stroke-linecap="round"/>
	<path d="M 66.753 23.116 c -0.159 0 -0.321 -0.038 -0.472 -0.119 L 55.011 16.96 c -0.486 -0.261 -0.67 -0.867 -0.409 -1.354 c 0.262 -0.487 0.868 -0.67 1.354 -0.409 l 11.271 6.037 c 0.486 0.261 0.67 0.867 0.409 1.354 C 67.455 22.924 67.109 23.116 66.753 23.116 z" style="stroke: none; stroke-width: 1; stroke-dasharray: none; stroke-linecap: butt; stroke-linejoin: miter; stroke-miterlimit: 10; fill: rgb(198,198,198); fill-rule: nonzero; opacity: 1;" transform=" matrix(1 0 0 1 0 0) " stroke-linecap="round"/>
	<path d="M 77.237 52.948 c -0.553 0 -1 -0.447 -1 -1 V 38.052 c 0 -0.552 0.447 -1 1 -1 s 1 0.448 1 1 v 13.896 C 78.237 52.501 77.79 52.948 77.237 52.948 z" style="stroke: none; stroke-width: 1; stroke-dasharray: none; stroke-linecap: butt; stroke-linejoin: miter; stroke-miterlimit: 10; fill: rgb(198,198,198); fill-rule: nonzero; opacity: 1;" transform=" matrix(1 0 0 1 0 0) " stroke-linecap="round"/>
	<path d="M 55.484 74.921 c -0.357 0 -0.702 -0.191 -0.883 -0.528 c -0.261 -0.486 -0.077 -1.093 0.41 -1.354 l 11.271 -6.036 c 0.484 -0.26 1.093 -0.077 1.354 0.41 c 0.261 0.486 0.077 1.093 -0.41 1.354 l -11.271 6.036 C 55.806 74.883 55.644 74.921 55.484 74.921 z" style="stroke: none; stroke-width: 1; stroke-dasharray: none; stroke-linecap: butt; stroke-linejoin: miter; stroke-miterlimit: 10; fill: rgb(198,198,198); fill-rule: nonzero; opacity: 1;" transform=" matrix(1 0 0 1 0 0) " stroke-linecap="round"/>
	<path d="M 23.3 58.043 c -0.362 0 -0.712 -0.197 -0.89 -0.541 c -0.253 -0.491 -0.061 -1.094 0.43 -1.348 l 11.217 -5.792 c 0.492 -0.253 1.094 -0.061 1.348 0.43 c 0.253 0.491 0.061 1.094 -0.43 1.348 l -11.217 5.792 C 23.611 58.007 23.454 58.043 23.3 58.043 z" style="stroke: none; stroke-width: 1; stroke-dasharray: none; stroke-linecap: butt; stroke-linejoin: miter; stroke-miterlimit: 10; fill: rgb(198,198,198); fill-rule: nonzero; opacity: 1;" transform=" matrix(1 0 0 1 0 0) " stroke-linecap="round"/>
	<path d="M 66.71 58.265 c -0.159 0 -0.321 -0.038 -0.471 -0.118 l -11.228 -6.014 c -0.487 -0.261 -0.671 -0.867 -0.41 -1.354 c 0.261 -0.487 0.868 -0.67 1.354 -0.41 l 11.228 6.014 c 0.487 0.261 0.671 0.867 0.41 1.354 C 67.412 58.073 67.067 58.265 66.71 58.265 z" style="stroke: none; stroke-width: 1; stroke-dasharray: none; stroke-linecap: butt; stroke-linejoin: miter; stroke-miterlimit: 10; fill: rgb(198,198,198); fill-rule: nonzero; opacity: 1;" transform=" matrix(1 0 0 1 0 0) " stroke-linecap="round"/>
	<path d="M 55.484 39.75 c -0.357 0 -0.702 -0.191 -0.883 -0.528 c -0.261 -0.487 -0.077 -1.093 0.41 -1.354 l 11.271 -6.037 c 0.484 -0.262 1.093 -0.077 1.354 0.409 c 0.261 0.487 0.077 1.093 -0.41 1.354 l -11.271 6.037 C 55.806 39.711 55.644 39.75 55.484 39.75 z" style="stroke: none; stroke-width: 1; stroke-dasharray: none; stroke-linecap: butt; stroke-linejoin: miter; stroke-miterlimit: 10; fill: rgb(198,198,198); fill-rule: nonzero; opacity: 1;" transform=" matrix(1 0 0 1 0 0) " stroke-linecap="round"/>
	<path d="M 34.515 39.75 c -0.154 0 -0.31 -0.036 -0.456 -0.111 l -11.27 -5.793 c -0.491 -0.252 -0.685 -0.855 -0.432 -1.346 c 0.252 -0.491 0.857 -0.683 1.346 -0.432 l 11.27 5.793 c 0.491 0.252 0.685 0.855 0.432 1.346 C 35.228 39.552 34.878 39.75 34.515 39.75 z" style="stroke: none; stroke-width: 1; stroke-dasharray: none; stroke-linecap: butt; stroke-linejoin: miter; stroke-miterlimit: 10; fill: rgb(198,198,198); fill-rule: nonzero; opacity: 1;" transform=" matrix(1 0 0 1 0 0) " stroke-linecap="round"/>
	<polygon points="2.28,20.46 12.76,15.36 23.25,20.46 12.76,25.55 " style="stroke: none; stroke-width: 1; stroke-dasharray: none; stroke-linecap: butt; stroke-linejoin: miter; stroke-miterlimit: 10; fill: rgb(252,234,107); fill-rule: nonzero; opacity: 1;" transform="  matrix(1 0 0 1 0 0) "/>
	<polygon points="12.76,25.55 12.76,38.05 23.25,32.96 23.25,20.46 " style="stroke: none; stroke-width: 1; stroke-dasharray: none; stroke-linecap: butt; stroke-linejoin: miter; stroke-miterlimit: 10; fill: rgb(226,208,79); fill-rule: nonzero; opacity: 1;" transform="  matrix(1 0 0 1 0 0) "/>
	<polygon points="2.28,32.96 2.28,20.46 12.76,25.55 12.76,38.05 " style="stroke: none; stroke-width: 1; stroke-dasharray: none; stroke-linecap: butt; stroke-linejoin: miter; stroke-miterlimit: 10; fill: rgb(213,195,67); fill-rule: nonzero; opacity: 1;" transform="  matrix(1 0 0 1 0 0) "/>
	<polygon points="34.52,72.4 45,67.31 55.48,72.4 45,77.5 " style="stroke: none; stroke-width: 1; stroke-dasharray: none; stroke-linecap: butt; stroke-linejoin: miter; stroke-miterlimit: 10; fill: rgb(252,234,107); fill-rule: nonzero; opacity: 1;" transform="  matrix(1 0 0 1 0 0) "/>
	<polygon points="45,77.5 45,90 55.48,84.91 55.48,72.4 " style="stroke: none; stroke-width: 1; stroke-dasharray: none; stroke-linecap: butt; stroke-linejoin: miter; stroke-miterlimit: 10; fill: rgb(226,208,79); fill-rule: nonzero; opacity: 1;" transform="  matrix(1 0 0 1 0 0) "/>
	<polygon points="34.52,84.91 34.52,72.4 45,77.5 45,90 " style="stroke: none; stroke-width: 1; stroke-dasharray: none; stroke-linecap: butt; stroke-linejoin: miter; stroke-miterlimit: 10; fill: rgb(213,195,67); fill-rule: nonzero; opacity: 1;" transform="  matrix(1 0 0 1 0 0) "/>
	<polygon points="34.52,38.75 45,33.66 55.48,38.75 45,43.84 " style="stroke: none; stroke-width: 1; stroke-dasharray: none; stroke-linecap: butt; stroke-linejoin: miter; stroke-miterlimit: 10; fill: rgb(252,234,107); fill-rule: nonzero; opacity: 1;" transform="  matrix(1 0 0 1 0 0) "/>
	<polygon points="45,43.84 45,56.34 55.48,51.25 55.48,38.75 " style="stroke: none; stroke-width: 1; stroke-dasharray: none; stroke-linecap: butt; stroke-linejoin: miter; stroke-miterlimit: 10; fill: rgb(226,208,79); fill-rule: nonzero; opacity: 1;" transform="  matrix(1 0 0 1 0 0) "/>
	<polygon points="34.52,51.25 34.52,38.75 45,43.84 45,56.34 " style="stroke: none; stroke-width: 1; stroke-dasharray: none; stroke-linecap: butt; stroke-linejoin: miter; stroke-miterlimit: 10; fill: rgb(213,195,67); fill-rule: nonzero; opacity: 1;" transform="  matrix(1 0 0 1 0 0) "/>
	<polygon points="34.52,5.09 45,0 55.48,5.09 45,10.19 " style="stroke: none; stroke-width: 1; stroke-dasharray: none; stroke-linecap: butt; stroke-linejoin: miter; stroke-miterlimit: 10; fill: rgb(93,213,216); fill-rule: nonzero; opacity: 1;" transform="  matrix(1 0 0 1 0 0) "/>
	<polygon points="45,10.19 45,22.69 55.48,17.6 55.48,5.09 " style="stroke: none; stroke-width: 1; stroke-dasharray: none; stroke-linecap: butt; stroke-linejoin: miter; stroke-miterlimit: 10; fill: rgb(77,186,189); fill-rule: nonzero; opacity: 1;" transform="  matrix(1 0 0 1 0 0) "/>
	<polygon points="34.52,17.6 34.52,5.09 45,10.19 45,22.69 " style="stroke: none; stroke-width: 1; stroke-dasharray: none; stroke-linecap: butt; stroke-linejoin: miter; stroke-miterlimit: 10; fill: rgb(66,166,169); fill-rule: nonzero; opacity: 1;" transform="  matrix(1 0 0 1 0 0) "/>
	<polygon points="2.28,57.04 12.76,51.95 23.25,57.04 12.76,62.14 " style="stroke: none; stroke-width: 1; stroke-dasharray: none; stroke-linecap: butt; stroke-linejoin: miter; stroke-miterlimit: 10; fill: rgb(93,213,216); fill-rule: nonzero; opacity: 1;" transform="  matrix(1 0 0 1 0 0) "/>
	<polygon points="12.76,62.14 12.76,74.64 23.25,69.54 23.25,57.04 " style="stroke: none; stroke-width: 1; stroke-dasharray: none; stroke-linecap: butt; stroke-linejoin: miter; stroke-miterlimit: 10; fill: rgb(77,186,189); fill-rule: nonzero; opacity: 1;" transform="  matrix(1 0 0 1 0 0) "/>
	<polygon points="2.28,69.54 2.28,57.04 12.76,62.14 12.76,74.64 " style="stroke: none; stroke-width: 1; stroke-dasharray: none; stroke-linecap: butt; stroke-linejoin: miter; stroke-miterlimit: 10; fill: rgb(66,166,169); fill-rule: nonzero; opacity: 1;" transform="  matrix(1 0 0 1 0 0) "/>
	<polygon points="66.75,57.04 77.24,51.95 87.72,57.04 77.24,62.14 " style="stroke: none; stroke-width: 1; stroke-dasharray: none; stroke-linecap: butt; stroke-linejoin: miter; stroke-miterlimit: 10; fill: rgb(93,213,216); fill-rule: nonzero; opacity: 1;" transform="  matrix(1 0 0 1 0 0) "/>
	<polygon points="77.24,62.14 77.24,74.64 87.72,69.54 87.72,57.04 " style="stroke: none; stroke-width: 1; stroke-dasharray: none; stroke-linecap: butt; stroke-linejoin: miter; stroke-miterlimit: 10; fill: rgb(77,186,189); fill-rule: nonzero; opacity: 1;" transform="  matrix(1 0 0 1 0 0) "/>
	<polygon points="66.75,69.54 66.75,57.04 77.24,62.14 77.24,74.64 " style="stroke: none; stroke-width: 1; stroke-dasharray: none; stroke-linecap: butt; stroke-linejoin: miter; stroke-miterlimit: 10; fill: rgb(66,166,169); fill-rule: nonzero; opacity: 1;" transform="  matrix(1 0 0 1 0 0) "/>
	<polygon points="66.75,20.46 77.24,15.36 87.72,20.46 77.24,25.55 " style="stroke: none; stroke-width: 1; stroke-dasharray: none; stroke-linecap: butt; stroke-linejoin: miter; stroke-miterlimit: 10; fill: rgb(93,213,216); fill-rule: nonzero; opacity: 1;" transform="  matrix(1 0 0 1 0 0) "/>
	<polygon points="77.24,25.55 77.24,38.05 87.72,32.96 87.72,20.46 " style="stroke: none; stroke-width: 1; stroke-dasharray: none; stroke-linecap: butt; stroke-linejoin: miter; stroke-miterlimit: 10; fill: rgb(77,186,189); fill-rule: nonzero; opacity: 1;" transform="  matrix(1 0 0 1 0 0) "/>
	<polygon points="66.75,32.96 66.75,20.46 77.24,25.55 77.24,38.05 " style="stroke: none; stroke-width: 1; stroke-dasharray: none; stroke-linecap: butt; stroke-linejoin: miter; stroke-miterlimit: 10; fill: rgb(66,166,169); fill-rule: nonzero; opacity: 1;" transform="  matrix(1 0 0 1 0 0) "/>
</g>
</svg>